<svg version="1.1" id="Layer_1" xmlns="http://www.w3.org/2000/svg" x="0" y="0" viewBox="0 0 283.5 283.5" style="enable-background:new 0 0 283.5 283.5" xml:space="preserve"><style>.st1{fill:#fff}</style><path style="fill:#e42e87" d="M0 0h283.5v283.5H0z"/><path class="st1" d="M72.4 47c6.5 0 11.8-5.2 11.8-11.5 0-6.4-5.3-11.5-11.8-11.5-6.5 0-11.8 5.2-11.8 11.5S65.9 47 72.4 47M211.9 47.2c6.5 0 11.8-5.3 11.8-11.8 0-6.5-5.3-11.8-11.8-11.8-6.5 0-11.8 5.3-11.8 11.8-.1 6.6 5.2 11.8 11.8 11.8"/><path d="M72.2 36.3c0 38.5 31.2 69.7 69.7 69.7s69.7-31.2 69.7-69.7" style="fill:none;stroke:#fff;stroke-width:7.874"/><path class="st1" d="M239.9 219.3v-40h-5.4v-6.9h12.7v39.9h5.4v6.9h-12.7zm-16 0-.1-2.8v-24.1h-5.2v-6.9h12.5v27h5.1v6.9h-12.3zm5.9-39.7c-1 .9-2 1.3-3.2 1.3-1.2 0-2.2-.4-3.2-1.3-.9-1-1.3-2-1.3-3.2 0-1.3.4-2.4 1.3-3.3 1-.9 2-1.3 3.2-1.3 1.2 0 2.2.4 3.2 1.3.9 1 1.3 2 1.3 3.2 0 1.3-.4 2.4-1.3 3.3m-22 26.3c-.9-.5-1.7-.8-2.6-1.1-1.1-.4-2.4-.6-3.7-.6-1.2 0-2.2.1-2.9.4-.8.3-1.4.6-1.9 1.1-1.1.9-1.6 2.1-1.6 3.5 0 1 .4 2 1.2 2.8.4.4.8.7 1.4.9.5.2 1.2.3 2.1.3 1.4 0 2.9-.4 4.5-1.2 1.3-.7 2.5-1.5 3.5-2.5v-3.6zm0 13.4V217c-1.3.8-2.7 1.4-4.2 2-1.5.5-3 .8-4.6.8-3.2 0-5.9-1.1-8.1-3.2-2.1-2.1-3.2-4.6-3.2-7.6 0-3.3 1.3-6 3.8-8.1 1.2-1.1 2.6-1.9 4.2-2.4s3.3-.7 5.2-.7c1.5 0 3 .2 4.7.6.3.1.7.2 1.1.3.4.1.8.2 1.1.4v-3.9c0-.8-.1-1.5-.3-2-.2-.5-.5-.8-.9-1.1-.5-.3-1.1-.6-1.9-.8-.8-.2-1.7-.3-2.8-.3-.5 0-1.2.1-1.9.2s-1.4.3-2.2.6c-.7.2-1.4.5-2.1.7-.7.2-1.2.4-1.7.6l-2.3-5.6c1.5-.6 2.7-1.1 3.8-1.4 1-.4 2.2-.7 3.3-1 1.2-.3 2.2-.4 3.1-.4 1.9 0 3.7.2 5.3.6 1.6.4 3 1 4.2 1.9 1.3 1 2.2 2.1 2.8 3.5.6 1.3.9 2.9.9 4.5v17.3h5v6.9h-12.3zm-22.6-27.1c-2 0-3.7.2-5 .7-1.3.5-2.4 1-3.2 1.8-.8.7-1.3 1.5-1.8 2.4-.4.9-.6 2.3-.6 4v11.3h6.1v6.9h-13.4v-27h-5.7v-6.9h13v3.5c.2-.1.5-.3 1.1-.7.6-.4 1.2-.7 1.8-1 1.4-.7 2.7-1.1 3.8-1.4 1.2-.3 2.5-.4 3.9-.3l3.1.1v6.6h-3.1zM152.7 220c-1.2 0-2.2-.2-3.2-.5s-1.8-.9-2.5-1.6c-.7-.7-1.2-1.5-1.5-2.5-.3-.9-.4-2-.4-3.1v-20h-5.3v-6.9h5.3v-6.6l7.3-.2v6.8h6.2v6.9h-6.2v19.4c0 .7.1 1.1.2 1.3h.3l5.7-.9v6.9l-5.9 1zm-21.4-27.7L116 232.6h-7.1l5.7-16.1-9.9-24.2h-5.6v-6.9h10.5l1.6 4.1 7.1 17.4 5.5-14.7H120v-6.9h16.4v6.9h-5.1zm-43.4 13.6c-.9-.5-1.7-.8-2.6-1.1-1.1-.4-2.4-.6-3.7-.6-1.2 0-2.2.1-2.9.4-.8.3-1.4.6-1.9 1.1-1.1.9-1.6 2.1-1.6 3.5 0 1 .4 2 1.2 2.8.4.4.8.7 1.4.9.5.2 1.2.3 2.1.3 1.4 0 2.9-.4 4.5-1.2 1.3-.7 2.5-1.5 3.5-2.5v-3.6zm0 13.4V217c-1.3.8-2.7 1.4-4.2 2-1.5.5-3 .8-4.6.8-3.2 0-5.9-1.1-8.1-3.2-2.1-2.1-3.2-4.6-3.2-7.6 0-3.3 1.3-6 3.8-8.1 1.2-1.1 2.6-1.9 4.2-2.4s3.3-.7 5.2-.7c1.5 0 3 .2 4.7.6.3.1.7.2 1.1.3.4.1.8.2 1.1.4v-3.9c0-.8-.1-1.5-.3-2-.2-.5-.5-.8-.9-1.1-.5-.3-1.1-.6-1.9-.8-.8-.2-1.7-.3-2.8-.3-.5 0-1.2.1-1.9.2s-1.4.3-2.2.6c-.7.2-1.4.5-2.1.7-.7.2-1.2.4-1.7.6l-2.3-5.6c1.5-.6 2.7-1.1 3.8-1.4 1-.4 2.2-.7 3.3-1 1.2-.3 2.2-.4 3.1-.4 1.9 0 3.7.2 5.3.6 1.6.4 3 1 4.2 1.9 1.3 1 2.2 2.1 2.8 3.5.6 1.3.9 2.9.9 4.5v17.3h5v6.9H87.9zm-28-35.8c-.4-1-.9-1.8-1.4-2.3-.6-.6-1.5-1-2.7-1.4-1.2-.3-2.7-.5-4.6-.5h-6.5v15.4h6.5c1.7 0 3.2-.2 4.3-.5 1.2-.3 2.1-.8 2.9-1.4.7-.5 1.2-1.2 1.6-2.1.4-.9.6-2 .6-3.3-.1-1.6-.3-2.9-.7-3.9m7 9.5c-.7 1.8-1.8 3.4-3.3 4.7-1.5 1.3-3.1 2.3-5 3-1.9.6-4 .9-6.2.9h-7.7V219.3H31.4v-6.9h5.7v-33.1h-5.7v-6.9h20.3c2.4 0 4.6.3 6.6.9 2 .6 3.7 1.6 5.3 2.9 1.5 1.3 2.6 2.9 3.3 4.7.7 1.8 1.1 3.8 1.1 6.1 0 2.2-.3 4.2-1.1 6M152.5 239.4c4.3 0 7.5 2.8 7.5 7.2v3.8c0 5.2-3.3 7.5-7.8 7.5-2.2 0-4.8-.5-6.9-1.2-.3-.1-.4-.3-.4-.6v-22.5c0-.3.2-.5.5-.5h2.9c.3 0 .5.2.5.5v6.6c1.1-.5 2.3-.8 3.7-.8zm3.4 11v-3.8c0-2.6-1.4-3.7-3.9-3.7-1.3 0-2.4.3-3.3.9v10.1c.8.3 2 .5 3.2.5 2.6-.1 4-1.1 4-4zM174.4 240.3c0-.3.2-.5.5-.5h2.9c.3 0 .5.2.5.5v16.1c0 5.3-2.4 8-7.6 8-2.9 0-4.9-.7-6.7-2.1-.3-.2-.3-.4-.1-.7l1.5-2.1c.2-.3.4-.3.6-.2 1.3.9 2.8 1.6 4.6 1.6 2.4 0 3.9-1 3.7-4.4-1.1.3-2.4.6-3.7.6-3.5 0-7.3-2.3-7.3-7v-9.7c0-.3.2-.5.5-.5h3c.3 0 .5.2.5.5v9.6c0 2.6 1.8 3.5 3.9 3.5 1.2 0 2.3-.3 3.1-.7v-12.5zM190.5 257.5c-.3 0-.5-.2-.5-.5v-15.6c0-.3.1-.5.4-.6 2-.9 4.4-1.3 6.8-1.3 4.7 0 7.9 2.2 7.9 7.6v9.9c0 .3-.2.5-.5.5h-3c-.3 0-.5-.2-.5-.5v-9.9c0-3.2-1.5-4.2-4-4.2-1.2 0-2.4.2-3.2.4v13.6c0 .3-.2.5-.5.5h-2.9zM223.6 249.8c0 .3-.2.5-.5.5h-10.4v1c0 2.1 1.4 3.1 3.6 3.1 2.1 0 3.5-.7 4.8-1.6.2-.2.5-.1.7.1l1.4 1.9c.2.2.2.5-.1.7-1.8 1.4-4 2.4-6.9 2.4-3.9 0-7.5-2.1-7.5-6.7v-4.8c0-5 3.8-7 7.5-7s7.4 2 7.4 7v3.4zm-7.4-6.9c-2 0-3.5 1-3.5 3.5v.9h7v-.9c0-2.6-1.6-3.5-3.5-3.5zM233.7 254.2c.3 0 .9 0 1.4-.1.3 0 .5.2.5.5v2.6c0 .3-.1.5-.5.5-.6 0-1.3.1-1.8.1-3.5 0-6.3-1.8-6.3-6.3V236c0-.3.2-.5.5-.5h2.6c.3 0 .5.2.5.4l.3 4.1h3.7c.3 0 .5.2.5.5v2.5c0 .3-.2.5-.5.5H231v7.8c0 1.9.9 2.9 2.7 2.9zM244.6 257.9c-2.3 0-4.8-.6-6.9-2.2-.3-.2-.3-.4-.1-.7l1.3-2.2c.2-.3.4-.3.7-.1 1.5 1.1 3.4 1.7 5.2 1.7 1.8 0 3.2-.7 3.2-2 0-1.4-1.6-1.7-3.2-2-2.6-.5-6.9-1.5-6.9-5.7 0-3.8 3.6-5.4 7.2-5.4 1.9 0 3.9.5 5.9 1.6.3.1.3.4.2.7l-1.3 2.2c-.2.2-.4.3-.7.2-1.3-.7-2.8-1.1-4.3-1.1-2 0-3.1.8-3.1 1.9 0 1.4 1.5 1.7 3.8 2.2 2.8.5 6.3 1.4 6.3 5.3-.1 3.7-3.2 5.6-7.3 5.6z"/></svg>